<svg width="30" height="32" viewBox="0 0 30 32" fill="none" xmlns="http://www.w3.org/2000/svg">
<path d="M23.6283 12.8617C23.8246 12.8617 24.021 12.8617 24.2173 12.8617C24.4137 12.8617 24.61 12.8617 24.8064 12.8617C26.1246 12.8617 27.0222 11.9427 27.0502 10.564V8.32372C27.0502 7.46205 26.7697 6.71533 26.2368 6.0547C25.3673 5.02071 24.2173 4.38879 23.432 4.04415C21.5246 3.15377 19.4491 2.60809 16.9247 2.37829C13.8674 2.06235 10.8662 2.43571 8.03333 3.44094C6.9394 3.84306 5.56504 4.41751 4.387 5.48016C3.48945 6.28435 3.06872 7.28963 3.09676 8.43851V8.46723C3.12485 8.84059 3.12485 9.21399 3.12485 9.61612C3.12485 9.90334 3.12485 10.1906 3.12485 10.449C3.15288 11.8564 4.07852 12.7755 5.4248 12.7755H8.90279H8.95891C10.2492 12.7755 11.1747 11.8277 11.1747 10.4778V8.49599C11.287 8.46728 11.3711 8.43856 11.4833 8.38109C11.6516 8.32362 11.8198 8.26619 11.9601 8.23748C12.9418 8.00773 13.9516 7.89283 15.0455 7.89283C15.6345 7.89283 16.2796 7.92155 16.8967 8.00773C17.7662 8.12263 18.4394 8.26624 19.0283 8.49599C19.0003 8.9843 19.0003 9.47255 19.0283 9.9321C19.0283 10.1044 19.0283 10.3055 19.0283 10.4778C19.0283 11.9139 19.9259 12.833 21.3283 12.833H23.0673C23.2356 12.8617 23.432 12.8617 23.6283 12.8617ZM20.4027 10.5065C20.4027 10.3055 20.4027 10.1332 20.4027 9.9321C20.4027 9.38637 20.4027 8.8694 20.4307 8.32372V8.295C20.4307 7.69185 20.0942 7.43334 19.8137 7.28978C19.7856 7.28978 19.7856 7.26101 19.7575 7.26101C19.0002 6.94508 18.1588 6.74404 17.0369 6.60043C16.3356 6.51425 15.6624 6.48553 15.0173 6.48553C13.8113 6.48553 12.7174 6.60043 11.6235 6.85889C11.3991 6.91637 11.2028 6.97379 11.0064 7.03122C10.8381 7.08869 10.6698 7.14612 10.5296 7.17483C10.5016 7.17483 10.4735 7.17483 10.4735 7.20354C10.193 7.28973 9.74421 7.54819 9.74421 8.26624V10.5065C9.74421 11.0809 9.46372 11.3682 8.93083 11.3682H5.36867C4.77965 11.3682 4.49916 11.0522 4.47112 10.4491C4.47112 10.1906 4.47112 9.9321 4.47112 9.67359C4.47112 9.27147 4.49916 8.84064 4.44308 8.38109C4.41504 7.66303 4.66744 7.11735 5.25646 6.57162C6.23818 5.68129 7.4723 5.16427 8.45401 4.81963C11.1467 3.87182 13.9515 3.52718 16.8124 3.78564C19.1685 4.01538 21.1039 4.50369 22.8709 5.3366C23.9368 5.85357 24.666 6.34182 25.1709 6.97374C25.5075 7.37581 25.6477 7.80665 25.6477 8.32367V10.5353C25.6477 10.9374 25.4795 11.4256 24.7783 11.4256C24.4137 11.4256 24.021 11.4256 23.6283 11.4256C23.432 11.4256 23.2356 11.4256 23.0112 11.4256H21.2722C20.6832 11.4256 20.4027 11.1384 20.4027 10.5065ZM15.1576 14.1829C14.0076 14.1829 13.054 15.1307 13.054 16.337C13.054 17.5146 13.9796 18.4912 15.1576 18.4912C16.3076 18.4912 17.2613 17.5434 17.2613 16.337C17.2613 15.1308 16.3357 14.1829 15.1576 14.1829ZM15.1576 17.0264C14.7649 17.0264 14.4564 16.7104 14.4564 16.3083C14.4564 15.9062 14.7649 15.5903 15.1576 15.5903C15.5503 15.5903 15.8588 15.9062 15.8588 16.3083C15.8588 16.7104 15.5503 17.0264 15.1576 17.0264ZM20.6271 14.1829C19.4771 14.1829 18.5235 15.1307 18.5235 16.337C18.5235 17.5146 19.4491 18.4912 20.6271 18.4912C21.8051 18.4912 22.7307 17.5434 22.7307 16.337C22.7307 15.1308 21.7771 14.1829 20.6271 14.1829ZM20.6271 17.0264C20.2344 17.0264 19.9259 16.7104 19.9259 16.3083C19.9259 15.9062 20.2344 15.5903 20.6271 15.5903C21.0198 15.5903 21.3283 15.9062 21.3283 16.3083C21.3283 16.7104 21.0198 17.0264 20.6271 17.0264ZM9.71617 14.1829C8.56622 14.1829 7.61254 15.1307 7.61254 16.337C7.61254 17.5146 8.53813 18.4912 9.71617 18.4912C10.8662 18.4912 11.8198 17.5434 11.8198 16.337C11.7918 15.1308 10.8662 14.1829 9.71617 14.1829ZM9.71617 17.0264C9.32352 17.0264 9.01499 16.7104 9.01499 16.3083C9.01499 15.9062 9.32347 15.5903 9.71617 15.5903C10.1089 15.5903 10.4174 15.9062 10.4174 16.3083C10.4174 16.7104 10.0809 17.0264 9.71617 17.0264ZM15.1576 19.5252C14.0076 19.5252 13.054 20.4729 13.054 21.6793C13.054 22.8569 13.9796 23.8335 15.1576 23.8335C16.3076 23.8335 17.2613 22.8856 17.2613 21.6793C17.2613 20.473 16.3357 19.5252 15.1576 19.5252ZM15.1576 22.3686C14.7649 22.3686 14.4564 22.0527 14.4564 21.6505C14.4564 21.2484 14.7649 20.9325 15.1576 20.9325C15.5503 20.9325 15.8588 21.2484 15.8588 21.6505C15.8588 22.0527 15.5503 22.3686 15.1576 22.3686ZM20.6271 19.5252C19.4771 19.5252 18.5235 20.4729 18.5235 21.6793C18.5235 22.8569 19.4491 23.8335 20.6271 23.8335C21.8051 23.8335 22.7307 22.8856 22.7307 21.6793C22.7307 20.473 21.7771 19.5252 20.6271 19.5252ZM20.6271 22.3686C20.2344 22.3686 19.9259 22.0527 19.9259 21.6505C19.9259 21.2484 20.2344 20.9325 20.6271 20.9325C21.0198 20.9325 21.3283 21.2484 21.3283 21.6505C21.3283 22.0527 21.0198 22.3686 20.6271 22.3686ZM9.71617 19.5252C8.56622 19.5252 7.61254 20.4729 7.61254 21.6793C7.61254 22.8569 8.53813 23.8335 9.71617 23.8335C10.8662 23.8335 11.8198 22.8856 11.8198 21.6793C11.7918 20.4729 10.8662 19.5252 9.71617 19.5252ZM9.71617 22.3686C9.32352 22.3686 9.01499 22.0527 9.01499 21.6505C9.01499 21.2484 9.32347 20.9325 9.71617 20.9325C10.1089 20.9325 10.4174 21.2484 10.4174 21.6505C10.4174 22.0527 10.0809 22.3686 9.71617 22.3686ZM17.2613 27.0215C17.2613 25.8439 16.3357 24.8673 15.1576 24.8673C14.0076 24.8673 13.054 25.8152 13.054 27.0215C13.054 28.2278 13.9796 29.1756 15.1576 29.1756C16.3357 29.1469 17.2613 28.1991 17.2613 27.0215ZM15.1576 27.7109C14.7649 27.7109 14.4564 27.3949 14.4564 26.9928C14.4564 26.5907 14.7649 26.2747 15.1576 26.2747C15.5503 26.2747 15.8588 26.5907 15.8588 26.9928C15.8588 27.3949 15.5503 27.7109 15.1576 27.7109ZM20.6271 24.8673C19.4771 24.8673 18.5235 25.8152 18.5235 27.0215C18.5235 28.2278 19.4491 29.1756 20.6271 29.1756C21.8051 29.1756 22.7307 28.2278 22.7307 27.0215C22.7307 25.8152 21.7771 24.8673 20.6271 24.8673ZM20.6271 27.7109C20.2344 27.7109 19.9259 27.3949 19.9259 26.9928C19.9259 26.5907 20.2344 26.2747 20.6271 26.2747C21.0198 26.2747 21.3283 26.5907 21.3283 26.9928C21.3283 27.3949 21.0198 27.7109 20.6271 27.7109ZM9.71617 24.8673C8.56622 24.8673 7.61254 25.8152 7.61254 27.0215C7.61254 28.2278 8.53813 29.1756 9.71617 29.1756C10.8662 29.1756 11.8198 28.2278 11.8198 27.0215C11.8198 25.8152 10.8662 24.8673 9.71617 24.8673ZM9.71617 27.7109C9.32352 27.7109 9.01499 27.3949 9.01499 26.9928C9.01499 26.5907 9.32347 26.2747 9.71617 26.2747C10.1089 26.2747 10.4174 26.5907 10.4174 26.9928C10.4174 27.3949 10.0809 27.7109 9.71617 27.7109Z" fill="#003B71"/>
</svg>
