<svg width="25" height="16" viewBox="0 0 25 16" fill="none" xmlns="http://www.w3.org/2000/svg">
<path fill-rule="evenodd" clip-rule="evenodd" d="M0.82698 1.63803C0.645452 1.9943 0.564702 2.4117 0.528781 3.00004H24.4712C24.4353 2.4117 24.3545 1.9943 24.173 1.63803C23.8854 1.07354 23.4265 0.614601 22.862 0.32698C22.2202 0 21.3802 0 19.7 0H5.3C3.61984 0 2.77976 0 2.13803 0.32698C1.57354 0.614601 1.1146 1.07354 0.82698 1.63803ZM24.5 6.00004H0.5V11.2C0.5 12.8802 0.5 13.7202 0.82698 14.362C1.1146 14.9265 1.57354 15.3854 2.13803 15.673C2.77976 16 3.61984 16 5.3 16H19.7C21.3802 16 22.2202 16 22.862 15.673C23.4265 15.3854 23.8854 14.9265 24.173 14.362C24.5 13.7202 24.5 12.8802 24.5 11.2V6.00004ZM2.5 12H8.5V14H2.5V12Z" fill="#F5F5F5"/>
</svg>
