<svg width="52" height="54" viewBox="0 0 52 54" fill="none" xmlns="http://www.w3.org/2000/svg">
<g filter="url(#filter0_d)">
<rect x="9" y="2.27637" width="34" height="35.3421" rx="15" fill="#00BC70"/>
</g>
<path d="M31.8621 20.7734C31.873 20.7959 31.8857 20.8168 31.8961 20.84C32.0341 21.143 32.1234 21.4583 32.1637 21.7651C32.2637 21.7937 32.3624 21.8331 32.4578 21.8855C33.1674 22.275 33.4348 23.1807 33.055 23.9089C32.6755 24.6369 31.7929 24.911 31.0833 24.5218C30.3736 24.1325 30.1068 23.226 30.4861 22.4983C30.6988 22.0901 31.0697 21.8249 31.4799 21.7387C31.3917 21.2784 31.1627 20.7749 30.7986 20.4165C30.5147 20.349 30.2241 20.2997 29.9273 20.272C29.9013 21.4825 26 24.4532 26 24.4532C26 24.4532 22.0987 21.4825 22.073 20.272C21.8647 20.2914 21.6589 20.3213 21.4569 20.3607C21.0113 20.7255 20.698 21.2479 20.612 21.6726C20.7713 21.7645 20.8961 21.9156 20.9658 22.1012C21.572 22.3742 22.1099 22.9865 22.5245 23.876C22.5857 24.0074 22.5857 24.1571 22.5274 24.2879C22.7841 24.9474 22.931 25.6686 22.931 26.2752C22.931 27.2355 22.8903 27.8371 22.1058 27.9966C22.0308 28.0721 21.9307 28.1145 21.8255 28.1145H21.2228C21.0003 28.1145 20.8191 27.9286 20.8191 27.7001V27.6918V27.6906C20.8243 27.4668 21.0037 27.2856 21.2228 27.2856H21.8255C21.8838 27.2856 21.9414 27.2988 21.9943 27.3243C22.1371 27.2934 22.1609 27.2515 22.174 27.2281C22.2495 27.0948 22.2646 26.7648 22.2646 26.2753C22.2646 25.7465 22.1332 25.1132 21.9037 24.5295C21.8008 24.4827 21.7168 24.3999 21.6684 24.296C21.2733 23.4474 20.7383 22.9203 20.273 22.9203C19.7977 22.9203 19.2364 23.489 18.8433 24.3695C18.7896 24.4896 18.69 24.5819 18.5696 24.6255C18.3595 25.1899 18.2441 25.7732 18.2441 26.2748C18.2441 26.6587 18.2516 27.0803 18.3423 27.2296C18.3561 27.2525 18.384 27.2982 18.5453 27.3288C18.6012 27.3002 18.6628 27.285 18.7264 27.285H19.3297C19.5441 27.285 19.72 27.4577 19.7324 27.6747L19.7333 27.6772V27.7002C19.7333 27.9287 19.5522 28.1147 19.3297 28.1147H18.7264C18.6274 28.1147 18.5319 28.0763 18.4581 28.0077C18.2412 27.9711 17.9534 27.8833 17.7764 27.5918C17.6085 27.3146 17.5777 26.9311 17.5777 26.2754C17.5777 25.6765 17.7157 24.9876 17.9668 24.33C17.9245 24.2103 17.9294 24.08 17.9811 23.9648C18.2295 23.4071 18.544 22.9318 18.8899 22.5901C19.0914 22.39 19.3083 22.2338 19.5344 22.1243C19.608 21.9125 19.7549 21.7417 19.941 21.6495C19.9835 21.3405 20.1013 21.0187 20.2788 20.7127C17.8886 21.6886 16.1985 24.0831 16.1985 26.8831C16.1985 30.5504 19.0951 30.5412 22.6683 30.5412H29.3318C32.9049 30.5412 35.8017 30.5504 35.8017 26.8831C35.8015 24.1384 34.1778 21.7843 31.8621 20.7734ZM31.5857 27.7686C31.5857 27.8548 31.5097 27.9244 31.416 27.9244H30.4929V28.8714C30.4929 28.9679 30.4246 29.0459 30.3411 29.0459H29.4304C29.3464 29.0459 29.2786 28.9679 29.2786 28.8714V27.9244H28.3555C28.262 27.9244 28.1858 27.8549 28.1858 27.7687V26.8341C28.1858 26.7478 28.262 26.6783 28.3555 26.6783H29.2786V25.7313C29.2786 25.6348 29.3464 25.5568 29.4304 25.5568H30.3411C30.4246 25.5568 30.4929 25.6348 30.4929 25.7313V26.6783H31.416C31.51 26.6783 31.5857 26.7478 31.5857 26.8341V27.7686Z" fill="white"/>
<path d="M26 8.11108C23.5211 8.11108 21.4678 10.0789 21.1059 12.6477C21.0685 12.9126 21.0496 13.1835 21.0496 13.4592C21.0496 13.5713 21.054 13.6822 21.0596 13.7926C21.069 13.9541 21.0838 14.1133 21.1059 14.2706C21.1093 14.3185 21.1134 14.3661 21.1178 14.4137C21.4299 18.0389 23.4964 20.8399 26 20.8399C28.5031 20.8399 30.5701 18.0389 30.8824 14.4137C30.8867 14.3661 30.8904 14.3185 30.8943 14.2706C30.9166 14.1133 30.9312 13.9541 30.9402 13.7926C30.9463 13.6822 30.9506 13.5713 30.9506 13.4592C30.9506 13.1838 30.9312 12.9126 30.8943 12.6477C30.5322 10.0789 28.4788 8.11108 26 8.11108Z" fill="white"/>
<path d="M31.7703 23.9514C32.1726 23.9514 32.4988 23.6166 32.4988 23.2037C32.4988 22.7908 32.1726 22.4561 31.7703 22.4561C31.3679 22.4561 31.0417 22.7908 31.0417 23.2037C31.0417 23.6166 31.3679 23.9514 31.7703 23.9514Z" fill="white"/>
<defs>
<filter id="filter0_d" x="0" y="0.276367" width="52" height="53.3421" filterUnits="userSpaceOnUse" color-interpolation-filters="sRGB">
<feFlood flood-opacity="0" result="BackgroundImageFix"/>
<feColorMatrix in="SourceAlpha" type="matrix" values="0 0 0 0 0 0 0 0 0 0 0 0 0 0 0 0 0 0 127 0"/>
<feOffset dy="7"/>
<feGaussianBlur stdDeviation="4.5"/>
<feColorMatrix type="matrix" values="0 0 0 0 0 0 0 0 0 0 0 0 0 0 0 0 0 0 0.03 0"/>
<feBlend mode="normal" in2="BackgroundImageFix" result="effect1_dropShadow"/>
<feBlend mode="normal" in="SourceGraphic" in2="effect1_dropShadow" result="shape"/>
</filter>
</defs>
</svg>
