<svg width="30" height="32" viewBox="0 0 30 32" fill="none" xmlns="http://www.w3.org/2000/svg">
<path d="M24.375 20.0504V16.0377C24.3698 11.7199 21.5501 7.93706 17.4844 6.79284C17.6992 6.38932 17.812 5.9372 17.8125 5.47766C17.8125 3.88704 16.5533 2.59766 15 2.59766C13.4467 2.59766 12.1875 3.88709 12.1875 5.47766C12.188 5.9372 12.3009 6.38937 12.5156 6.79284C8.44985 7.93706 5.63024 11.7199 5.62499 16.0377V20.0504C4.16485 20.593 3.41068 22.2449 3.94048 23.7401C4.34142 24.8715 5.38715 25.6283 6.56249 25.6377H11.25C11.25 27.7584 12.9289 29.4777 15 29.4777C17.0711 29.4777 18.75 27.7584 18.75 25.6377H23.4375C24.9908 25.6253 26.2401 24.3259 26.2281 22.7354C26.219 21.5318 25.4799 20.461 24.375 20.0504ZM14.0625 5.47766C14.0625 4.94748 14.4822 4.51766 15 4.51766C15.5177 4.51766 15.9375 4.94748 15.9375 5.47766C15.9375 6.00783 15.5178 6.43766 15 6.43766C14.4822 6.43766 14.0625 6.00788 14.0625 5.47766ZM15 8.35766C19.1422 8.35766 22.5 11.7961 22.5 16.0377V19.8777H7.49999V16.0377C7.49999 11.7961 10.8578 8.35766 15 8.35766ZM15 27.5577C13.9645 27.5577 13.125 26.698 13.125 25.6377H16.875C16.875 26.698 16.0355 27.5577 15 27.5577ZM23.4375 23.7177H6.56249C6.0447 23.7177 5.62499 23.2878 5.62499 22.7577C5.62499 22.2275 6.04475 21.7977 6.56249 21.7977H23.4375C23.9553 21.7977 24.375 22.2275 24.375 22.7577C24.375 23.2878 23.9553 23.7177 23.4375 23.7177ZM3.98436 10.6328C3.53455 10.3703 3.37779 9.78398 3.63426 9.32338C3.63534 9.32147 3.63642 9.31956 3.63749 9.31766C4.78244 7.27151 6.43931 5.57489 8.43749 4.40246C8.88794 4.13737 9.46298 4.29639 9.72186 4.75764C9.98073 5.21889 9.82544 5.80775 9.37499 6.07283C7.66499 7.075 6.2474 8.52662 5.26872 10.2777C5.0123 10.7383 4.43975 10.8988 3.98994 10.6362C3.98808 10.6351 3.98622 10.6339 3.98436 10.6328ZM26.0156 10.6328C25.5676 10.8986 24.994 10.7422 24.7345 10.2834C24.7334 10.2815 24.7323 10.2796 24.7313 10.2777C23.7526 8.52662 22.335 7.075 20.625 6.07283C20.1746 5.80775 20.0193 5.21889 20.2781 4.75764C20.537 4.29639 21.1121 4.13737 21.5625 4.40246C23.5607 5.57489 25.2175 7.27151 26.3625 9.31766C26.6221 9.77645 26.4693 10.3638 26.0212 10.6296C26.0194 10.6307 26.0175 10.6318 26.0156 10.6328Z" fill="#003B71"/>
</svg>
