<svg width="53" height="53" viewBox="0 0 53 53" fill="none" xmlns="http://www.w3.org/2000/svg">
<g filter="url(#filter0_d)">
<rect x="9" y="2" width="35" height="35" rx="15" fill="#003B71"/>
</g>
<path d="M33.9591 24.2678C33.669 24.1278 33.3841 23.998 33.1155 23.8789L32.9158 23.7886C32.6167 23.6554 32.3154 23.5188 32.0076 23.3949C32.0024 23.3926 31.9977 23.3904 31.9934 23.3893C31.6744 23.2609 31.348 23.1456 31.0131 23.0579C30.9557 23.0392 30.9005 23.0206 30.8432 23.0004C30.8389 23.0049 30.8367 23.009 30.8332 23.0142C30.4763 23.487 30.1142 23.9375 29.746 24.3734C29.0938 25.1496 28.4251 25.8788 27.7518 26.6062C27.3375 27.0544 26.918 27.5015 26.4998 27.9583C26.0812 27.5015 25.6639 27.0544 25.2496 26.6062C24.5745 25.8773 23.9063 25.1474 23.2528 24.3696C22.8851 23.9348 22.5238 23.4859 22.1681 23.0138C22.1647 23.009 22.1625 23.0045 22.1582 23C22.1026 23.0187 22.0457 23.0388 21.9901 23.0575C21.6547 23.1445 21.3279 23.2605 21.0081 23.3889C21.0029 23.3904 20.999 23.3926 20.9939 23.3945C20.6865 23.5188 20.3839 23.655 20.0855 23.7882L19.8868 23.8785C19.7519 23.9386 19.6126 24.0013 19.4708 24.0659L18.6897 24.4417C18.2818 24.6485 17.8701 24.8772 17.4809 25.1295C16.7954 25.5706 16.0987 26.0569 15.7607 26.7047C15.4624 27.2772 15.4904 27.9534 15.5129 28.6047L15.5219 28.8077C15.5263 28.911 15.5293 29.0495 15.5293 29.1801C15.5258 29.5458 15.844 29.7115 16.1548 29.8732C16.198 29.894 16.2419 29.9146 16.2816 29.9392C16.6717 30.1493 17.0869 30.3661 17.521 30.5352C18.9096 31.0696 20.5115 31.4454 22.5497 31.7245C23.2425 31.8179 23.8879 31.8865 24.5324 31.9317C25.1747 31.9798 25.7826 32 26.4008 32H26.5995C27.216 32 27.8269 31.9798 28.467 31.9317C29.1124 31.8865 29.7565 31.8175 30.4505 31.7245C32.4888 31.4454 34.0899 31.0696 35.4801 30.5352C35.9134 30.3657 36.3285 30.1493 36.7183 29.9392C36.7588 29.915 36.8019 29.894 36.8459 29.8732C37.1567 29.7119 37.4757 29.5462 37.4714 29.1801C37.4714 29.0495 37.4757 28.911 37.4787 28.8077L37.4861 28.6047C37.5102 27.9534 37.5382 27.2769 37.2399 26.7047C36.9019 26.0568 36.2039 25.5706 35.519 25.1295C35.2452 24.9518 34.9598 24.7861 34.6723 24.6313L33.9591 24.2678Z" fill="white"/>
<path d="M31.2265 22C30.2208 22.335 27.9325 22.5342 26.5405 22.5342C25.15 22.5342 23.0057 22.3349 22 22.0012L26.5405 27.1603L31.2265 22Z" fill="white"/>
<path d="M33.7695 18.017C33.4965 17.6119 33.222 17.2072 32.9659 16.7912C32.4259 15.9154 32.3948 14.9442 32.1248 13.963C31.7956 12.7481 31.1603 11.7094 30.0666 10.9832L30.4288 8.47926C30.4631 8.248 30.382 8.01556 30.2056 7.84174C30.0292 7.66674 29.7766 7.56519 29.5111 7.56519H23.2141C22.9491 7.56519 22.6947 7.66637 22.5196 7.84174C22.3432 8.01556 22.2621 8.248 22.2964 8.47926L22.6929 11.22C22.1343 11.6797 21.6879 12.268 21.3525 12.9892C20.964 13.8251 20.7988 14.7267 20.4241 15.567C20.0495 16.4127 19.4752 17.1826 18.9713 17.9721C18.8341 18.1869 18.8217 18.3662 18.962 18.5784C19.3161 19.1065 19.7451 19.5593 20.2383 19.944C20.8187 20.3983 21.4914 20.7565 22.2385 21.0358C22.9188 21.2902 23.6164 21.4613 24.2842 21.5652C24.2343 21.5105 24.192 21.4613 24.1639 21.4324C23.9674 21.2355 23.7848 21.03 23.6146 20.814C22.6364 19.5608 22.1793 17.9928 22.2056 16.4701C22.2136 15.9654 22.6489 15.7326 23.1589 15.6326C24.1777 15.4341 25.1997 15.2536 26.2092 15.0251C27.1532 14.8118 28.1689 14.5872 29.0211 14.1618C29.316 14.0153 29.7512 13.6544 29.9744 14.0837C30.4097 14.9196 30.644 15.9552 30.5656 17.1185C30.4983 18.135 30.2252 19.0834 29.7089 19.985C29.3903 20.5393 28.952 21.0385 28.5573 21.5296C29.3641 21.4038 30.1111 21.1999 30.8337 20.892C31.5937 20.569 32.266 20.1588 32.8308 19.6455C33.193 19.3186 33.5111 18.9478 33.7797 18.5291C33.8947 18.3522 33.8884 18.1908 33.7695 18.017ZM28.1167 10.2754H26.8903V11.359H25.8403V10.2906H24.6095V9.36993H25.8234V8.28354H26.8828V9.36286H28.1172V10.2754H28.1167Z" fill="white"/>
<defs>
<filter id="filter0_d" x="0" y="0" width="53" height="53" filterUnits="userSpaceOnUse" color-interpolation-filters="sRGB">
<feFlood flood-opacity="0" result="BackgroundImageFix"/>
<feColorMatrix in="SourceAlpha" type="matrix" values="0 0 0 0 0 0 0 0 0 0 0 0 0 0 0 0 0 0 127 0"/>
<feOffset dy="7"/>
<feGaussianBlur stdDeviation="4.5"/>
<feColorMatrix type="matrix" values="0 0 0 0 0 0 0 0 0 0 0 0 0 0 0 0 0 0 0.03 0"/>
<feBlend mode="normal" in2="BackgroundImageFix" result="effect1_dropShadow"/>
<feBlend mode="normal" in="SourceGraphic" in2="effect1_dropShadow" result="shape"/>
</filter>
</defs>
</svg>
