<svg width="30" height="32" viewBox="0 0 30 32" fill="none" xmlns="http://www.w3.org/2000/svg">
<path d="M28.2862 18.3483V13.7685L25.441 13.2697C25.1974 12.325 24.8294 11.4176 24.3475 10.5685L26.0162 8.15914L22.8549 4.922L20.5021 6.63077C19.6729 6.13719 18.7868 5.76042 17.8643 5.511L17.3771 2.59756H12.9047L12.4176 5.511C11.4951 5.76042 10.6089 6.13719 9.7797 6.63077L7.42691 4.922L4.26563 8.15914L5.93436 10.5685C5.45235 11.4176 5.08441 12.325 4.84083 13.2697L1.99568 13.7685V18.3536L4.84083 18.8471C5.08441 19.7917 5.45235 20.6992 5.93436 21.5483L4.26563 23.9576L7.42691 27.1947L9.7797 25.4859C10.6089 25.9795 11.4898 26.3563 12.4176 26.6057L12.9047 29.5191H17.3771L17.8643 26.6057C18.7867 26.3562 19.6729 25.9795 20.5021 25.4859L22.8549 27.1947L26.0162 23.9576L24.3475 21.5483C24.8294 20.6992 25.1974 19.7971 25.441 18.8471L28.2862 18.3483ZM23.9433 17.2392L23.8189 17.8601C23.5961 19.0064 23.1556 20.0889 22.5181 21.0707L22.176 21.5961L23.6686 23.756L22.6476 24.8014L20.5488 23.2677L20.0357 23.618C19.077 24.2707 18.0197 24.7218 16.9003 24.95L16.294 25.0773L15.8587 27.683H14.418L13.9826 25.0773L13.3763 24.95C12.2569 24.7165 11.1997 24.2707 10.2409 23.618L9.72784 23.2677L7.61857 24.796L6.59764 23.7507L8.09014 21.5908L7.74808 21.0654C7.12102 20.0836 6.68568 19.0064 6.45769 17.8601L6.33333 17.2392L3.78877 16.7934V15.3182L6.33333 14.8724L6.45769 14.2514C6.68053 13.1052 7.12102 12.0279 7.75847 11.0408L8.10058 10.5154L6.60803 8.35556L7.62896 7.31012L9.73823 8.8385L10.2513 8.48823C11.21 7.83553 12.2672 7.38442 13.3866 7.15622L13.9929 7.02888L14.4283 4.4232H15.8586L16.294 7.02888L16.9003 7.15622C18.0197 7.38442 19.0717 7.83548 20.0357 8.48823L20.5487 8.8385L22.658 7.31012L23.6789 8.35556L22.1812 10.5208L22.5232 11.0461C23.1606 12.0279 23.6012 13.1104 23.824 14.2568L23.9484 14.8776L26.493 15.3234V16.7987L23.9433 17.2392Z" fill="#003B71"/>
<path d="M15.1435 10.0007C11.8786 10.0007 9.22514 12.7178 9.22514 16.061C9.22514 19.399 11.8786 22.1161 15.1383 22.1161C18.3981 22.1161 21.0515 19.399 21.0515 16.061C21.0567 12.7178 18.4033 10.0007 15.1435 10.0007ZM19.2584 16.061C19.2584 18.3854 17.4134 20.2746 15.1435 20.2746C12.8737 20.2746 11.0235 18.3854 11.0235 16.061C11.0235 13.7367 12.8684 11.8421 15.1435 11.8421C17.4134 11.8421 19.2584 13.7313 19.2584 16.061Z" fill="#003B71"/>
</svg>
