<svg width="88" height="80" viewBox="0 0 88 80" fill="none" xmlns="http://www.w3.org/2000/svg">
<g filter="url(#filter0_d)">
<rect x="9" y="2" width="70" height="70" rx="15" fill="#003B71"/>
</g>
<path d="M58.9183 46.5356C58.338 46.2557 57.7681 45.996 57.2309 45.7578L56.8317 45.5772C56.2334 45.3108 55.6307 45.0376 55.0151 44.7898C55.0048 44.7853 54.9953 44.7808 54.9867 44.7786C54.3487 44.5219 53.696 44.2912 53.0261 44.1158C52.9114 44.0784 52.8011 44.0412 52.6864 44.0008C52.6777 44.0098 52.6734 44.018 52.6664 44.0284C51.9526 44.974 51.2283 45.8749 50.492 46.7467C49.1875 48.2993 47.8502 49.7576 46.5035 51.2124C45.675 52.1087 44.836 53.0029 43.9996 53.9165C43.1625 53.003 42.3278 52.1088 41.4993 51.2124C40.1491 49.7547 38.8126 48.2947 37.5056 46.7392C36.7701 45.8697 36.0476 44.9718 35.3362 44.0276C35.3294 44.018 35.3251 44.009 35.3164 44C35.2052 44.0374 35.0914 44.0777 34.9802 44.115C34.3094 44.289 33.6558 44.5211 33.0161 44.7778C33.0058 44.7808 32.998 44.7853 32.9877 44.789C32.373 45.0376 31.7677 45.31 31.1711 45.5764L30.7736 45.7571C30.5038 45.8773 30.2253 46.0026 29.9416 46.1318L28.3793 46.8834C27.5637 47.2969 26.7403 47.7544 25.9617 48.259C24.5908 49.1412 23.1975 50.1138 22.5215 51.4095C21.9249 52.5544 21.9809 53.9069 22.0258 55.2093L22.0439 55.6154C22.0525 55.8221 22.0586 56.099 22.0586 56.3602C22.0516 57.0917 22.6879 57.4231 23.3096 57.7463C23.3959 57.7881 23.4838 57.8292 23.5632 57.8784C24.3434 58.2986 25.1738 58.7322 26.042 59.0703C28.8191 60.1391 32.023 60.8908 36.0995 61.4491C37.485 61.6357 38.7758 61.773 40.0648 61.8634C41.3494 61.9596 42.5651 62 43.8015 62H44.199C45.432 62 46.6537 61.9596 47.9341 61.8634C49.2248 61.7731 50.513 61.6349 51.901 61.4491C55.9776 60.8909 59.1798 60.1392 61.9603 59.0703C62.8268 58.7314 63.6571 58.2985 64.4366 57.8784C64.5175 57.8299 64.6038 57.7881 64.6917 57.7463C65.3134 57.4239 65.9514 57.0925 65.9428 56.3602C65.9428 56.099 65.9514 55.8221 65.9575 55.6154L65.9721 55.2093C66.0204 53.9069 66.0764 52.5537 65.4798 51.4095C64.8038 50.1137 63.4079 49.1412 62.0379 48.259C61.4904 47.9037 60.9196 47.5723 60.3445 47.2626L58.9183 46.5356Z" fill="white"/>
<path d="M53.453 42C51.4416 42.6699 46.865 43.0685 44.081 43.0685C41.2999 43.0685 37.0115 42.6698 35 42.0024L44.081 52.3206L53.453 42Z" fill="white"/>
<path d="M58.5391 34.0337C57.993 33.2236 57.4441 32.4142 56.9318 31.5821C55.8519 29.8305 55.7896 27.8882 55.2497 25.9258C54.5912 23.496 53.3207 21.4186 51.1333 19.9662L51.8577 14.9583C51.9262 14.4958 51.764 14.0309 51.4113 13.6832C51.0584 13.3332 50.5532 13.1301 50.0222 13.1301H37.4283C36.8983 13.1301 36.3895 13.3325 36.0393 13.6832C35.6865 14.0309 35.5243 14.4958 35.5929 14.9583L36.3859 20.4397C35.2687 21.3592 34.3759 22.5358 33.705 23.9781C32.9281 25.6499 32.5976 27.4532 31.8483 29.1337C31.099 30.8251 29.9505 32.3651 28.9427 33.9439C28.6683 34.3736 28.6434 34.7322 28.924 35.1565C29.6323 36.2128 30.4904 37.1183 31.4766 37.8878C32.6375 38.7964 33.9829 39.5129 35.4771 40.0714C36.8376 40.5801 38.2329 40.9223 39.5684 41.1301C39.4687 41.0207 39.3841 40.9223 39.3279 40.8645C38.935 40.4708 38.5696 40.0598 38.2293 39.6278C36.2728 37.1213 35.3587 33.9853 35.4112 30.9399C35.4272 29.9305 36.2978 29.4649 37.3179 29.2649C39.3555 28.868 41.3995 28.507 43.4185 28.05C45.3064 27.6234 47.3378 27.1742 49.0422 26.3234C49.632 26.0304 50.5025 25.3085 50.9489 26.1671C51.8195 27.839 52.288 29.9102 52.1312 32.2368C51.9967 34.2697 51.4505 36.1666 50.4179 37.9697C49.7807 39.0783 48.9041 40.0768 48.1146 41.0589C49.7282 40.8073 51.2223 40.3995 52.6675 39.7839C54.1875 39.1378 55.532 38.3174 56.6617 37.2908C57.386 36.6369 58.0222 35.8954 58.5595 35.0579C58.7894 34.7041 58.7769 34.3814 58.5391 34.0337ZM47.2336 18.5506H44.7808V20.7178H42.6807V18.581H40.219V16.7396H42.6469V14.5668H44.7656V16.7255H47.2345V18.5506H47.2336Z" fill="white"/>
<defs>
<filter id="filter0_d" x="0" y="0" width="88" height="88" filterUnits="userSpaceOnUse" color-interpolation-filters="sRGB">
<feFlood flood-opacity="0" result="BackgroundImageFix"/>
<feColorMatrix in="SourceAlpha" type="matrix" values="0 0 0 0 0 0 0 0 0 0 0 0 0 0 0 0 0 0 127 0"/>
<feOffset dy="7"/>
<feGaussianBlur stdDeviation="4.5"/>
<feColorMatrix type="matrix" values="0 0 0 0 0 0 0 0 0 0 0 0 0 0 0 0 0 0 0.03 0"/>
<feBlend mode="normal" in2="BackgroundImageFix" result="effect1_dropShadow"/>
<feBlend mode="normal" in="SourceGraphic" in2="effect1_dropShadow" result="shape"/>
</filter>
</defs>
</svg>
