<svg width="70" height="70" viewBox="0 0 70 70" fill="none" xmlns="http://www.w3.org/2000/svg">
<g clip-path="url(#clip0)">
<path d="M51.3448 7.42116V12.9442C51.3448 13.3414 51.0099 13.6535 50.5839 13.6535H27.6361C27.21 13.6535 26.8752 13.3414 26.8752 12.9442V7.42116C26.8752 7.03336 27.2101 6.71188 27.6361 6.71188H35.5593C35.9144 5.18926 37.3753 4.04495 39.11 4.04495C40.855 4.04495 42.3055 5.18926 42.6608 6.71188H50.5839C51.01 6.71188 51.3448 7.03336 51.3448 7.42116Z" fill="white"/>
<g filter="url(#filter0_d)">
<rect width="70" height="70" rx="15" fill="#003B71"/>
</g>
<path d="M25.6478 52.7704L26.2015 52.2102L25.4748 51.475C23.71 52.5166 21.7029 53.068 19.6093 53.068C18.4154 53.068 17.2562 52.8843 16.1487 52.5429V57.6805C16.1487 58.9672 17.1697 60 18.4327 60H32.8974C32.6898 59.8599 32.4995 59.7024 32.3179 59.5186L25.6478 52.7704Z" fill="white"/>
<path d="M28.3205 19.0173H22.5155V24.8996H28.3205V19.0173Z" fill="white"/>
<path d="M53.5133 9.21802H47.6998V12.6665C47.6998 13.7519 46.8259 14.6358 45.7532 14.6358H26.1841C25.1114 14.6358 24.2376 13.7519 24.2376 12.6665V9.21802H18.4326C17.1696 9.21802 16.1486 10.2596 16.1486 11.5287V29.7601C20.1802 28.5085 24.7393 29.5062 27.9316 32.7359C31.8419 36.692 32.3783 42.6437 29.8088 47.0988L30.5269 47.8164L31.072 47.2563L37.7594 54.0132C38.486 54.7483 38.8926 55.7374 38.884 56.779C38.884 57.8205 38.4687 58.8183 37.7508 59.5272C37.5778 59.7023 37.3787 59.8685 37.1797 59.9999H53.4179C54.7244 59.9999 55.7971 58.9234 55.7971 57.5929V11.5287C55.7972 10.2596 54.7677 9.21802 53.5133 9.21802ZM31.9609 20.4311H42.6449C43.0031 20.4311 43.2937 20.7251 43.2937 21.0875C43.2937 21.45 43.0031 21.744 42.6449 21.744H31.9609C31.6027 21.744 31.3121 21.45 31.3121 21.0875C31.3121 20.7251 31.6027 20.4311 31.9609 20.4311ZM29.6182 25.5561C29.6182 25.9184 29.3276 26.2125 28.9693 26.2125H21.8667C21.5084 26.2125 21.2179 25.9185 21.2179 25.5561V18.3609C21.2179 17.9985 21.5084 17.7045 21.8667 17.7045H28.9693C29.3275 17.7045 29.6182 17.9985 29.6182 18.3609V25.5561ZM31.3121 24.7774C31.3121 24.415 31.6027 24.121 31.9609 24.121H51.5359C51.8942 24.121 52.1848 24.4149 52.1848 24.7774C52.1848 25.1398 51.8942 25.4338 51.5359 25.4338H31.9609C31.6027 25.4338 31.3121 25.1398 31.3121 24.7774ZM51.8224 40.443H48.7058C48.465 40.443 48.2437 40.3079 48.1313 40.0925L47.1782 38.2599L45.4826 43.5361C45.3955 43.8071 45.1464 43.9901 44.8659 43.9901C44.8608 43.9901 44.8566 43.9901 44.8516 43.9901C44.5652 43.9832 44.3169 43.7875 44.2408 43.508L41.5981 33.8272L39.0854 41.8984C39.0078 42.1463 38.7923 42.3249 38.5363 42.3532C38.2718 42.3899 38.031 42.2531 37.9035 42.0283L37.0342 40.4993H34.5199C34.1618 40.4993 33.8711 40.2053 33.8711 39.8428C33.8711 39.4805 34.1618 39.1864 34.5199 39.1864H37.4093C37.6416 39.1864 37.8562 39.312 37.972 39.5155L38.2913 40.0779L41.0194 31.3134C41.1047 31.04 41.3556 30.8545 41.6387 30.8545C41.6421 30.8545 41.6463 30.8545 41.6505 30.8545C41.9377 30.8596 42.1878 31.0553 42.2639 31.3365L44.9166 41.0524L46.4196 36.3752C46.4999 36.1239 46.7212 35.9462 46.9814 35.9239C47.234 35.9033 47.4892 36.0384 47.6108 36.2717L49.0978 39.13H51.8224C52.1807 39.13 52.4712 39.4239 52.4712 39.7864C52.4712 40.1488 52.1807 40.443 51.8224 40.443Z" fill="white"/>
<path d="M27.0146 48.6479C31.1153 44.4993 31.098 37.7949 27.0146 33.6636C22.9226 29.5237 16.2871 29.5149 12.1951 33.6549C8.1031 37.8036 8.11178 44.508 12.2037 48.6479C16.2871 52.7879 22.9226 52.7967 27.0146 48.6479ZM14.9895 36.482C17.5329 33.9 21.6769 33.9087 24.2289 36.4908C26.7653 39.0568 26.8133 43.2154 24.2289 45.8297C21.6866 48.4024 17.5719 48.4325 14.9895 45.8297C12.4461 43.2477 12.4374 39.0552 14.9895 36.482Z" fill="white"/>
<path d="M36.8425 54.941L31.0807 49.1206L30.5357 49.6808L29.0824 48.2191C28.3338 49.2413 27.4511 50.1155 26.5908 50.7486L28.0356 52.2103L27.4819 52.7705L33.235 58.5909C34.2299 59.5974 35.8476 59.5974 36.8425 58.5909C37.8113 57.6279 37.8632 55.9739 36.8425 54.941Z" fill="white"/>
</g>
<defs>
<filter id="filter0_d" x="-9" y="-2" width="88" height="88" filterUnits="userSpaceOnUse" color-interpolation-filters="sRGB">
<feFlood flood-opacity="0" result="BackgroundImageFix"/>
<feColorMatrix in="SourceAlpha" type="matrix" values="0 0 0 0 0 0 0 0 0 0 0 0 0 0 0 0 0 0 127 0"/>
<feOffset dy="7"/>
<feGaussianBlur stdDeviation="4.5"/>
<feColorMatrix type="matrix" values="0 0 0 0 0 0 0 0 0 0 0 0 0 0 0 0 0 0 0.03 0"/>
<feBlend mode="normal" in2="BackgroundImageFix" result="effect1_dropShadow"/>
<feBlend mode="normal" in="SourceGraphic" in2="effect1_dropShadow" result="shape"/>
</filter>
<clipPath id="clip0">
<rect width="70" height="70" fill="white"/>
</clipPath>
</defs>
</svg>
